<svg width="92" height="92" viewBox="0 0 92 92" fill="none" xmlns="http://www.w3.org/2000/svg">
<path d="M46.0067 69L46.0067 46H23.0067C35.7093 46 46.0067 56.2975 46.0067 69Z" fill="#BE2D2D"/>
<path d="M69.0068 46H46.0067L46.0067 69C46.0067 56.2975 56.3042 46 69.0068 46Z" fill="#BE2D2D"/>
<path d="M46.0039 92H23.0039L23.0039 69C23.0039 81.7026 33.3014 92 46.0039 92Z" fill="#BE2D2D"/>
<path d="M69.0048 69V92H46.0039C58.7065 92 69.0048 81.7026 69.0048 69Z" fill="#BE2D2D"/>
<path d="M23.0039 23V1.00536e-06L46.0039 0C33.3014 5.55246e-07 23.0039 10.2975 23.0039 23Z" fill="#BE2D2D"/>
<path d="M23.0067 46H46.0067V23C46.0067 35.7025 35.7093 46 23.0067 46Z" fill="#BE2D2D"/>
<path d="M46.0067 23V46H69.0068C56.3042 46 46.0067 35.7025 46.0067 23Z" fill="#BE2D2D"/>
<path d="M46.0039 0L69.0048 1.00536e-06V23C69.0048 10.2975 58.7065 0 46.0039 0Z" fill="#BE2D2D"/>
<path d="M23.0067 46H0.00584849L0.0058505 23L23.0039 23L23.0067 46Z" fill="#BE2D2D"/>
<path d="M23.0067 46H0.00584849L0.0058505 23L23.0039 23L23.0067 46Z" fill="#BE2D2D"/>
<path d="M92.0059 69L69.0048 69L69.0068 46L92.0059 46V69Z" fill="#BE2D2D"/>
<path d="M23.0039 23V1.00536e-06C10.3014 1.00536e-06 0.00584817 10.2974 0.0058505 23L23.0039 23Z" fill="#BE2D2D"/>
<path d="M69.0048 23L92.0048 23C92.0048 10.2975 81.7074 4.50116e-07 69.0048 1.00536e-06" fill="#BE2D2D"/>
<path d="M23.0039 69L0.00390625 69C0.00390569 81.7026 10.3014 92 23.0039 92L23.0039 69Z" fill="#BE2D2D"/>
<path d="M92.0059 69C92.0059 81.7026 81.7074 92 69.0048 92V69L92.0059 69Z" fill="#BE2D2D"/>
</svg>
