<svg width="12" height="9" viewBox="0 0 12 9" fill="none" xmlns="http://www.w3.org/2000/svg">
<path d="M0.73291 4.25769C0.424608 4.25769 0.17468 4.50762 0.17468 4.81592C0.17468 5.12422 0.424608 5.37415 0.73291 5.37415L0.73291 4.25769ZM11.338 5.21065C11.556 4.99264 11.556 4.63919 11.338 4.42119L7.78548 0.868639C7.56748 0.650636 7.21403 0.650636 6.99602 0.868639C6.77802 1.08664 6.77802 1.44009 6.99602 1.65809L10.1538 4.81592L6.99602 7.97374C6.77802 8.19174 6.77802 8.5452 6.99602 8.7632C7.21403 8.9812 7.56748 8.9812 7.78548 8.7632L11.338 5.21065ZM0.73291 5.37415L10.9433 5.37415L10.9433 4.25769L0.73291 4.25769L0.73291 5.37415Z" fill="#555555"/>
</svg>
