<svg width="20" height="24" viewBox="0 0 20 24" fill="none" xmlns="http://www.w3.org/2000/svg">
<rect x="0.75" y="0.75" width="18.5" height="22.5" rx="9.25" stroke="#3A3A3A" stroke-width="1.5"/>
<path d="M10.75 5C10.75 4.58579 10.4142 4.25 10 4.25C9.58579 4.25 9.25 4.58579 9.25 5L10.75 5ZM9.46967 19.5303C9.76256 19.8232 10.2374 19.8232 10.5303 19.5303L15.3033 14.7574C15.5962 14.4645 15.5962 13.9896 15.3033 13.6967C15.0104 13.4038 14.5355 13.4038 14.2426 13.6967L10 17.9393L5.75736 13.6967C5.46447 13.4038 4.98959 13.4038 4.6967 13.6967C4.40381 13.9896 4.40381 14.4645 4.6967 14.7574L9.46967 19.5303ZM9.25 5L9.25 19L10.75 19L10.75 5L9.25 5Z" fill="#3A3A3A"/>
</svg>
