<svg width="155" height="47" viewBox="0 0 155 47" fill="none" xmlns="http://www.w3.org/2000/svg">
<path d="M63.6411 14.6483C61.1745 14.6483 59.5767 13.2467 59.7169 11.1585H60.8521C60.754 12.6581 61.8472 13.5831 63.6411 13.5831C65.1548 13.5831 66.1499 12.9104 66.1499 11.8032C66.1499 9.04218 59.9271 11.1304 59.9271 7.38839C59.9271 5.59444 61.3707 4.50126 63.4589 4.50126C65.8415 4.50126 67.3131 5.93081 66.9768 7.92096H65.8415C66.1499 6.4774 65.0707 5.56641 63.4309 5.56641C62.0714 5.56641 61.1044 6.19709 61.1044 7.29028C61.1044 10.0232 67.3131 8.03309 67.3131 11.7471C67.3131 13.6251 65.7434 14.6483 63.6411 14.6483Z" fill="#CC5C5C"/>
<path d="M71.9266 14.6483C69.8804 14.6483 68.5209 13.1767 68.5209 10.9763C68.5209 8.77589 69.8664 7.3043 71.9967 7.3043C74.113 7.3043 75.2202 8.78991 74.8698 10.752H73.7346C73.9869 9.22438 73.3001 8.28536 71.9687 8.28536C70.5532 8.28536 69.6562 9.36453 69.6562 10.9763C69.6562 12.588 70.5672 13.6672 71.9266 13.6672C72.9918 13.6672 73.7626 12.9945 74.057 11.9573H75.2202C74.9399 13.3168 73.8748 14.6483 71.9266 14.6483Z" fill="#CC5C5C"/>
<path d="M79.969 7.3043C81.5527 7.3043 82.2675 8.49559 82.2675 10.2615V14.4801H81.2023V10.2615C81.2023 9.08423 80.7678 8.3274 79.6746 8.3274C78.3993 8.3274 77.5023 9.42059 77.5023 11.1024V14.4801H76.4371V4.66944H77.5023V8.84597C77.9648 7.87892 78.8618 7.3043 79.969 7.3043Z" fill="#CC5C5C"/>
<path d="M86.8797 14.6483C84.8334 14.6483 83.474 13.1767 83.474 10.9763C83.474 8.77589 84.8334 7.3043 86.8797 7.3043C88.9119 7.3043 90.2713 8.77589 90.2713 10.9763C90.2713 13.1767 88.9119 14.6483 86.8797 14.6483ZM86.8797 13.6672C88.2251 13.6672 89.1361 12.588 89.1361 10.9763C89.1361 9.36453 88.2251 8.28536 86.8797 8.28536C85.5202 8.28536 84.6092 9.36453 84.6092 10.9763C84.6092 12.588 85.5202 13.6672 86.8797 13.6672Z" fill="#CC5C5C"/>
<path d="M94.6641 14.6483C92.6179 14.6483 91.2584 13.1767 91.2584 10.9763C91.2584 8.77589 92.6179 7.3043 94.6641 7.3043C96.6963 7.3043 98.0558 8.77589 98.0558 10.9763C98.0558 13.1767 96.6963 14.6483 94.6641 14.6483ZM94.6641 13.6672C96.0096 13.6672 96.9206 12.588 96.9206 10.9763C96.9206 9.36453 96.0096 8.28536 94.6641 8.28536C93.3046 8.28536 92.3936 9.36453 92.3936 10.9763C92.3936 12.588 93.3046 13.6672 94.6641 13.6672Z" fill="#CC5C5C"/>
<path d="M100.543 14.4801H99.4773V4.66944H100.543V14.4801Z" fill="#CC5C5C"/>
<path d="M108.752 14.6483C106.705 14.6483 105.346 13.1767 105.346 10.9763C105.346 8.77589 106.705 7.3043 108.752 7.3043C110.784 7.3043 112.143 8.77589 112.143 10.9763C112.143 13.1767 110.784 14.6483 108.752 14.6483ZM108.752 13.6672C110.097 13.6672 111.008 12.588 111.008 10.9763C111.008 9.36453 110.097 8.28536 108.752 8.28536C107.392 8.28536 106.481 9.36453 106.481 10.9763C106.481 12.588 107.392 13.6672 108.752 13.6672Z" fill="#CC5C5C"/>
<path d="M117.09 6.54747H116.109C116.347 5.90277 116.193 5.48232 115.716 5.48232C115.282 5.48232 115.03 5.8327 115.03 6.43535V7.47248H117.09V8.43953H115.03V14.4801H113.964V8.43953H112.703V7.47248H113.964V6.43535C113.964 5.23005 114.595 4.50126 115.758 4.50126C117.02 4.50126 117.482 5.35618 117.09 6.54747Z" fill="#CC5C5C"/>
<path d="M61.2806 28.4954H60.1453V18.6848H61.2806V28.4954Z" fill="#CC5C5C"/>
<path d="M66.9384 21.3196C69.1668 21.3196 69.1668 23.506 69.1668 24.6692V28.4954H68.1017V24.7253C68.1017 23.7442 68.1017 22.3427 66.6161 22.3427C65.2986 22.3427 64.4017 23.4499 64.4017 25.1177V28.4954H63.3365V21.4878H64.4017V22.8613C64.9202 21.8942 65.8312 21.3196 66.9384 21.3196Z" fill="#CC5C5C"/>
<path d="M74.2869 21.4878V22.4548H72.3107V26.4912C72.3107 27.1499 72.4229 27.6825 73.2918 27.6825C73.6142 27.6825 73.8945 27.6124 74.1467 27.5143V28.4814C73.8664 28.5795 73.502 28.6636 73.1096 28.6636C71.2596 28.6636 71.2456 27.0658 71.2456 26.5052V22.4548H69.9842V21.4878H71.2456V19.6798H72.3107V21.4878H74.2869Z" fill="#CC5C5C"/>
<path d="M80.5022 26.3791H81.6655C81.259 27.7946 80.0957 28.6636 78.498 28.6636C76.4097 28.6636 75.0783 27.206 75.0783 24.9916C75.0783 22.7772 76.4238 21.3196 78.5541 21.3196C80.9086 21.3196 81.9738 23.0995 81.3851 25.398H76.2276C76.3677 26.8416 77.1946 27.6825 78.484 27.6825C79.451 27.6825 80.2079 27.192 80.5022 26.3791ZM78.512 22.2726C77.2086 22.2726 76.4097 23.0715 76.2416 24.431H80.4461C80.5863 23.1136 79.8715 22.2726 78.512 22.2726Z" fill="#CC5C5C"/>
<path d="M85.965 21.3196C86.9741 21.3196 87.6048 22.1045 87.6048 23.0855C87.6048 23.506 87.4927 23.8844 87.3385 24.2067H86.2033C86.3995 23.9124 86.4696 23.6041 86.4696 23.3238C86.4696 22.7211 86.1192 22.3427 85.5866 22.3427C84.6897 22.3427 84.087 23.4359 84.087 25.0897V28.4954H83.0219V21.4878H84.087V22.7071C84.4935 21.8242 85.1382 21.3196 85.965 21.3196Z" fill="#CC5C5C"/>
<path d="M91.2536 21.3196C93.1877 21.3196 94.0987 22.623 94.0987 24.5151V28.4954H93.0475V27.22C92.543 28.117 91.66 28.6636 90.5108 28.6636C89.0953 28.6636 88.1002 27.8367 88.1002 26.5893C88.1002 25.1878 89.3335 24.3189 91.2536 24.3189C91.8563 24.3189 92.4869 24.403 93.0335 24.5571V24.5011C93.0335 23.2537 92.5991 22.3007 91.2396 22.3007C90.1884 22.3007 89.5017 22.8613 89.754 23.9124H88.6187C88.2403 22.4268 89.4877 21.3196 91.2536 21.3196ZM90.6229 27.7105C91.8983 27.7105 92.9074 26.8416 93.0335 25.4961C92.529 25.342 91.9123 25.2439 91.3377 25.2439C89.9922 25.2439 89.2354 25.7905 89.2354 26.6314C89.2354 27.3181 89.754 27.7105 90.6229 27.7105Z" fill="#CC5C5C"/>
<path d="M98.7031 28.6636C96.6569 28.6636 95.2974 27.192 95.2974 24.9916C95.2974 22.7912 96.6429 21.3196 98.7732 21.3196C100.889 21.3196 101.997 22.8052 101.646 24.7674H100.511C100.763 23.2397 100.077 22.3007 98.7452 22.3007C97.3296 22.3007 96.4327 23.3799 96.4327 24.9916C96.4327 26.6033 97.3436 27.6825 98.7031 27.6825C99.7683 27.6825 100.539 27.0098 100.833 25.9727H101.997C101.716 27.3321 100.651 28.6636 98.7031 28.6636Z" fill="#CC5C5C"/>
<path d="M106.886 21.4878V22.4548H104.91V26.4912C104.91 27.1499 105.022 27.6825 105.891 27.6825C106.213 27.6825 106.493 27.6124 106.746 27.5143V28.4814C106.465 28.5795 106.101 28.6636 105.709 28.6636C103.859 28.6636 103.845 27.0658 103.845 26.5052V22.4548H102.583V21.4878H103.845V19.6798H104.91V21.4878H106.886Z" fill="#CC5C5C"/>
<path d="M108.658 20.2965C108.196 20.2965 107.845 19.9461 107.845 19.4836C107.845 19.0351 108.196 18.6848 108.658 18.6848C109.107 18.6848 109.457 19.0351 109.457 19.4836C109.457 19.9461 109.107 20.2965 108.658 20.2965ZM109.191 28.4954H108.125V21.4878H109.191V28.4954Z" fill="#CC5C5C"/>
<path d="M113.35 27.234L115.452 21.4878H116.545L113.939 28.4954H112.719L110.112 21.4878H111.248L113.35 27.234Z" fill="#CC5C5C"/>
<path d="M122.333 26.3791H123.496C123.09 27.7946 121.927 28.6636 120.329 28.6636C118.241 28.6636 116.909 27.206 116.909 24.9916C116.909 22.7772 118.255 21.3196 120.385 21.3196C122.74 21.3196 123.805 23.0995 123.216 25.398H118.059C118.199 26.8416 119.026 27.6825 120.315 27.6825C121.282 27.6825 122.039 27.192 122.333 26.3791ZM120.343 22.2726C119.04 22.2726 118.241 23.0715 118.073 24.431H122.277C122.417 23.1136 121.702 22.2726 120.343 22.2726Z" fill="#CC5C5C"/>
<path d="M136.709 28.4954H135.476L134.481 25.9026H129.729L128.734 28.4954H127.473L131.397 18.6848H132.785L136.709 28.4954ZM132.098 19.7359L130.122 24.8655H134.074L132.098 19.7359Z" fill="#CC5C5C"/>
<path d="M140.587 21.3196C141.596 21.3196 142.226 22.1045 142.226 23.0855C142.226 23.506 142.114 23.8844 141.96 24.2067H140.825C141.021 23.9124 141.091 23.6041 141.091 23.3238C141.091 22.7211 140.741 22.3427 140.208 22.3427C139.311 22.3427 138.709 23.4359 138.709 25.0897V28.4954H137.643V21.4878H138.709V22.7071C139.115 21.8242 139.76 21.3196 140.587 21.3196Z" fill="#CC5C5C"/>
<path d="M147.088 21.4878V22.4548H145.112V26.4912C145.112 27.1499 145.224 27.6825 146.093 27.6825C146.415 27.6825 146.696 27.6124 146.948 27.5143V28.4814C146.668 28.5795 146.303 28.6636 145.911 28.6636C144.061 28.6636 144.047 27.0658 144.047 26.5052V22.4548H142.786V21.4878H144.047V19.6798H145.112V21.4878H147.088Z" fill="#CC5C5C"/>
<path d="M150.851 28.6636C148.945 28.6636 147.655 27.6405 147.852 25.8465H148.875C148.706 27.0098 149.491 27.7526 150.879 27.7526C151.93 27.7526 152.617 27.3181 152.617 26.6454C152.617 24.8795 147.95 26.0287 147.95 23.492C147.95 22.1605 149.225 21.3196 150.781 21.3196C152.617 21.3196 153.85 22.4689 153.514 23.9124H152.491C152.729 22.9314 151.916 22.2306 150.739 22.2306C149.786 22.2306 149.043 22.6791 149.043 23.3799C149.043 25.0897 153.71 23.9124 153.71 26.5333C153.71 27.8647 152.547 28.6636 150.851 28.6636Z" fill="#CC5C5C"/>
<path d="M62.5279 35.2267C64.462 35.2267 65.373 36.5301 65.373 38.4221V42.4025H64.3219V41.1271C63.8173 42.0241 62.9343 42.5706 61.7851 42.5706C60.3696 42.5706 59.3745 41.7438 59.3745 40.4964C59.3745 39.0949 60.6078 38.2259 62.5279 38.2259C63.1306 38.2259 63.7612 38.31 64.3078 38.4642V38.4081C64.3078 37.1608 63.8734 36.2077 62.5139 36.2077C61.4628 36.2077 60.776 36.7684 61.0283 37.8195H59.8931C59.5146 36.3339 60.762 35.2267 62.5279 35.2267ZM61.8972 41.6176C63.1726 41.6176 64.1817 40.7487 64.3078 39.4032C63.8033 39.2491 63.1866 39.1509 62.612 39.1509C61.2665 39.1509 60.5097 39.6975 60.5097 40.5384C60.5097 41.2252 61.0283 41.6176 61.8972 41.6176Z" fill="#CC5C5C"/>
<path d="M70.538 35.2267C72.7664 35.2267 72.7665 37.4131 72.7665 38.5763V42.4025H71.7013V38.6324C71.7013 37.6513 71.7013 36.2498 70.2157 36.2498C68.8983 36.2498 68.0013 37.357 68.0013 39.0248V42.4025H66.9361V35.3949H68.0013V36.7684C68.5198 35.8013 69.4308 35.2267 70.538 35.2267Z" fill="#CC5C5C"/>
<path d="M79.6071 36.6282V32.5918H80.6722V42.4025H79.6071V41.1691C79.0745 42.0521 78.2056 42.5706 77.1124 42.5706C75.2624 42.5706 73.973 41.1131 73.973 38.8987C73.973 36.6983 75.2484 35.2267 77.1124 35.2267C78.2196 35.2267 79.0885 35.7453 79.6071 36.6282ZM77.3787 41.5896C78.7381 41.5896 79.6491 40.5104 79.6491 38.8987C79.6491 37.2869 78.7381 36.2077 77.3787 36.2077C76.0192 36.2077 75.1082 37.2869 75.1082 38.8987C75.1082 40.5104 76.0192 41.5896 77.3787 41.5896Z" fill="#CC5C5C"/>
<path d="M85.2824 32.5918H93.1729V33.629H89.7952V42.4025H88.66V33.629H85.2824V32.5918Z" fill="#CC5C5C"/>
<path d="M97.7409 40.2862H98.9041C98.4977 41.7017 97.3344 42.5706 95.7367 42.5706C93.6484 42.5706 92.317 41.1131 92.317 38.8987C92.317 36.6843 93.6625 35.2267 95.7928 35.2267C98.1473 35.2267 99.2125 37.0066 98.6238 39.3051H93.4662C93.6064 40.7487 94.4333 41.5896 95.7227 41.5896C96.6897 41.5896 97.4466 41.0991 97.7409 40.2862ZM95.7507 36.1797C94.4473 36.1797 93.6485 36.9786 93.4803 38.3381H97.6848C97.825 37.0206 97.1102 36.1797 95.7507 36.1797Z" fill="#CC5C5C"/>
<path d="M103.302 42.5706C101.256 42.5706 99.8962 41.0991 99.8962 38.8987C99.8962 36.6983 101.242 35.2267 103.372 35.2267C105.488 35.2267 106.595 36.7123 106.245 38.6744H105.11C105.362 37.1468 104.675 36.2077 103.344 36.2077C101.928 36.2077 101.031 37.2869 101.031 38.8987C101.031 40.5104 101.942 41.5896 103.302 41.5896C104.367 41.5896 105.138 40.9169 105.432 39.8797H106.595C106.315 41.2392 105.25 42.5706 103.302 42.5706Z" fill="#CC5C5C"/>
<path d="M111.344 35.2267C112.928 35.2267 113.643 36.418 113.643 38.1839V42.4025H112.578V38.1839C112.578 37.0066 112.143 36.2498 111.05 36.2498C109.774 36.2498 108.878 37.343 108.878 39.0248V42.4025H107.812V32.5918H108.878V36.7684C109.34 35.8013 110.237 35.2267 111.344 35.2267Z" fill="#CC5C5C"/>
<path d="M118.815 35.2267C121.044 35.2267 121.044 37.4131 121.044 38.5763V42.4025H119.979V38.6324C119.979 37.6513 119.979 36.2498 118.493 36.2498C117.176 36.2498 116.279 37.357 116.279 39.0248V42.4025H115.214V35.3949H116.279V36.7684C116.797 35.8013 117.708 35.2267 118.815 35.2267Z" fill="#CC5C5C"/>
<path d="M125.656 42.5706C123.61 42.5706 122.25 41.0991 122.25 38.8987C122.25 36.6983 123.61 35.2267 125.656 35.2267C127.688 35.2267 129.048 36.6983 129.048 38.8987C129.048 41.0991 127.688 42.5706 125.656 42.5706ZM125.656 41.5896C127.002 41.5896 127.913 40.5104 127.913 38.8987C127.913 37.2869 127.002 36.2077 125.656 36.2077C124.297 36.2077 123.386 37.2869 123.386 38.8987C123.386 40.5104 124.297 41.5896 125.656 41.5896Z" fill="#CC5C5C"/>
<path d="M131.534 42.4025H130.469V32.5918H131.534V42.4025Z" fill="#CC5C5C"/>
<path d="M136.353 42.5706C134.306 42.5706 132.947 41.0991 132.947 38.8987C132.947 36.6983 134.306 35.2267 136.353 35.2267C138.385 35.2267 139.744 36.6983 139.744 38.8987C139.744 41.0991 138.385 42.5706 136.353 42.5706ZM136.353 41.5896C137.698 41.5896 138.609 40.5104 138.609 38.8987C138.609 37.2869 137.698 36.2077 136.353 36.2077C134.993 36.2077 134.082 37.2869 134.082 38.8987C134.082 40.5104 134.993 41.5896 136.353 41.5896Z" fill="#CC5C5C"/>
<path d="M144.291 40.8468C145.973 40.9589 147.108 41.8278 147.108 43.1172C147.108 44.4487 145.903 45.3737 144.053 45.3737C142.245 45.3737 140.899 44.4627 140.619 43.0472H141.881C142.007 43.86 142.876 44.3926 144.053 44.3926C145.202 44.3926 145.973 43.8881 145.973 43.1172C145.973 42.3324 145.174 41.7998 143.843 41.7998C143.17 41.7998 142.385 41.9259 141.67 42.1222V41.057C142.735 40.8748 143.674 40.5805 144.403 40.1741C144.165 40.2301 143.913 40.2581 143.632 40.2581C141.951 40.2581 140.829 39.2911 140.829 37.8195C140.829 36.2778 142.063 35.2407 143.885 35.2407C144.81 35.2407 145.581 35.507 146.113 35.9555C146.351 35.7172 146.323 34.9464 146.211 34.5259H147.276C147.445 35.3388 147.206 36.1797 146.618 36.5441C146.828 36.8945 146.94 37.3009 146.94 37.7494C146.94 39.0668 145.973 40.16 144.291 40.8468ZM141.951 37.8335C141.951 38.8006 142.735 39.4453 143.899 39.4453C145.048 39.4453 145.819 38.8006 145.819 37.8335C145.819 36.8665 145.062 36.2218 143.899 36.2218C142.749 36.2218 141.951 36.8665 141.951 37.8335Z" fill="#CC5C5C"/>
<path d="M151.018 41.5195L153.022 35.3949H154.115L151.537 42.9911C151.046 44.4487 150.261 45.3176 148.986 45.3176C148.593 45.3176 148.187 45.2335 147.879 45.1074V44.1263C148.215 44.2665 148.537 44.3366 148.874 44.3366C149.813 44.3366 150.219 43.6919 150.457 42.9911L150.528 42.7669L147.724 35.3949H148.86L151.018 41.5195Z" fill="#CC5C5C"/>
<path d="M23.8341 35.1088L23.8341 23.565H12.2903C18.6657 23.565 23.8341 28.7334 23.8341 35.1088Z" fill="#CC5C5C"/>
<path d="M35.3778 23.565H23.8341L23.8341 35.1088C23.8341 28.7334 29.0024 23.565 35.3778 23.565Z" fill="#CC5C5C"/>
<path d="M23.8326 46.6526H12.2889L12.2889 35.1088C12.2889 41.4842 17.4572 46.6526 23.8326 46.6526Z" fill="#CC5C5C"/>
<path d="M35.3768 35.1088V46.6526H23.8326C30.2081 46.6526 35.3768 41.4842 35.3768 35.1088Z" fill="#CC5C5C"/>
<path d="M12.2889 12.0213V0.47754L23.8326 0.477539C17.4572 0.477539 12.2889 5.64586 12.2889 12.0213Z" fill="#CC5C5C"/>
<path d="M12.2903 23.565H23.8341V12.0213C23.8341 18.3967 18.6657 23.565 12.2903 23.565Z" fill="#CC5C5C"/>
<path d="M23.8341 12.0213V23.565H35.3778C29.0024 23.565 23.8341 18.3967 23.8341 12.0213Z" fill="#CC5C5C"/>
<path d="M23.8326 0.477539L35.3768 0.47754V12.0213C35.3768 5.64586 30.2081 0.477539 23.8326 0.477539Z" fill="#CC5C5C"/>
<path d="M12.2903 23.565H0.746092L0.746093 12.0213L12.2889 12.0213L12.2903 23.565Z" fill="#CC5C5C"/>
<path d="M12.2903 23.565H0.746092L0.746093 12.0213L12.2889 12.0213L12.2903 23.565Z" fill="#CC5C5C"/>
<path d="M46.9211 35.1088L35.3768 35.1088L35.3778 23.565L46.9211 23.5651V35.1088Z" fill="#CC5C5C"/>
<path d="M12.2889 12.0213V0.47754C5.91344 0.47754 0.746092 5.64585 0.746093 12.0213L12.2889 12.0213Z" fill="#CC5C5C"/>
<path d="M35.3768 12.0213L46.9206 12.0213C46.9206 5.64585 41.7523 0.477539 35.3768 0.47754" fill="#CC5C5C"/>
<path d="M12.2889 35.1088L0.745117 35.1088C0.745117 41.4842 5.91344 46.6526 12.2889 46.6526L12.2889 35.1088Z" fill="#CC5C5C"/>
<path d="M46.9211 35.1088C46.9211 41.4842 41.7523 46.6526 35.3768 46.6526V35.1088L46.9211 35.1088Z" fill="#CC5C5C"/>
</svg>
