<svg width="48" height="88" viewBox="0 0 48 88" fill="none" xmlns="http://www.w3.org/2000/svg">
<path d="M24.001 56L24.001 44H12.0012C18.6285 44 24.001 49.3726 24.001 56Z" fill="#BE2D2D"/>
<path d="M36.0007 44H24.001L24.001 56C24.001 49.3726 29.3734 44 36.0007 44Z" fill="#BE2D2D"/>
<path d="M23.9995 68H11.9997L11.9997 56C11.9997 62.6274 17.3722 68 23.9995 68Z" fill="#BE2D2D"/>
<path d="M35.9997 56V68H23.9995C30.6268 68 35.9997 62.6274 35.9997 56Z" fill="#BE2D2D"/>
<path d="M11.9997 32V20L23.9995 20C17.3722 20 11.9997 25.3726 11.9997 32Z" fill="#BE2D2D"/>
<path d="M12.0012 44H24.001V32C24.001 38.6274 18.6285 44 12.0012 44Z" fill="#BE2D2D"/>
<path d="M24.001 32V44H36.0007C29.3734 44 24.001 38.6274 24.001 32Z" fill="#BE2D2D"/>
<path d="M23.9995 20L35.9997 20V32C35.9997 25.3726 30.6268 20 23.9995 20Z" fill="#BE2D2D"/>
<path d="M12.0012 44H0.00101332L0.00101437 32L11.9997 32L12.0012 44Z" fill="#BE2D2D"/>
<path d="M12.0012 44H0.00101332L0.00101437 32L11.9997 32L12.0012 44Z" fill="#BE2D2D"/>
<path d="M48 56L35.9997 56L36.0007 44L48 44V56Z" fill="#BE2D2D"/>
<path d="M11.9997 32V20C5.37247 20 0.00101315 25.3726 0.00101437 32L11.9997 32Z" fill="#BE2D2D"/>
<path d="M35.9997 32L47.9994 32C47.9994 25.3726 42.627 20 35.9997 20" fill="#BE2D2D"/>
<path d="M11.9997 56L0 56C-2.89687e-07 62.6274 5.37247 68 11.9997 68L11.9997 56Z" fill="#BE2D2D"/>
<path d="M48 56C48 62.6274 42.627 68 35.9997 68V56L48 56Z" fill="#BE2D2D"/>
</svg>
