<svg width="72" height="34" viewBox="0 0 72 34" fill="none" xmlns="http://www.w3.org/2000/svg">
<path fill-rule="evenodd" clip-rule="evenodd" d="M0.822998 8.66367L0.822999 0.327393L9.15928 0.327394L9.15928 8.66363H9.16008V16.9999C9.16008 12.4051 5.44272 8.67857 0.851429 8.66367H0.822998ZM25.8329 17C25.8329 12.3973 29.563 8.66585 34.1651 8.66368L34.1691 8.66367V0.327394L25.8329 0.327393L25.8329 8.66367V17ZM9.16008 25.3362H0.825045C5.42847 25.3355 9.16008 21.6035 9.16008 16.9999V25.3362ZM9.16008 25.3362L0.825045 25.3363V25.3362L0.825045 25.2923L0.824931 25.3362L0.824931 25.3363C0.824931 29.9403 4.55721 33.6726 9.16121 33.6726V33.6725H17.4964C12.9388 33.6725 9.23541 30.0151 9.16121 25.4752V25.3363L9.16008 25.3362ZM25.8095 33.6725H17.4966C22.1006 33.6725 25.8329 29.9402 25.8329 25.3362V33.6724H25.8337V25.3363L34.1691 25.3363L34.17 25.3363C34.17 29.9403 30.4377 33.6726 25.8337 33.6726L25.8329 33.6725H25.8095ZM34.1691 25.3363L25.8329 25.3362L25.8329 17C25.8329 21.604 29.5651 25.3363 34.1691 25.3363Z" fill="#BE2D2D"/>
<path fill-rule="evenodd" clip-rule="evenodd" d="M54.5024 8.66367C59.1064 8.66368 62.8387 4.9314 62.8387 0.327393V8.66368H62.8408L62.8408 0.327492L71.1771 0.327493V8.66377H71.1339C66.5488 8.68591 62.8387 12.4097 62.8387 17C62.8387 12.396 59.1064 8.66368 54.5024 8.66367ZM37.8309 8.66377V8.66373V0.327492L46.1657 0.327447L46.1672 0.327493V0.488112C46.2528 5.01663 49.9495 8.66158 54.4979 8.66373C49.8958 8.66591 46.1657 12.3974 46.1657 17C46.1657 12.4052 42.4483 8.67867 37.857 8.66377H37.8309ZM37.8309 25.3363V33.6726L46.1657 33.6726L46.1672 33.6726V33.5119C46.2528 28.9821 49.9517 25.3363 54.502 25.3363C49.898 25.3363 46.1657 21.604 46.1657 17C46.1657 21.6014 42.4378 25.332 37.8375 25.3363H37.8309ZM62.8408 25.3363L62.8408 33.6726H71.1771V25.3363H71.1669C66.5667 25.332 62.8387 21.6014 62.8387 17C62.8387 21.604 59.1064 25.3363 54.5024 25.3363C59.1064 25.3363 62.8387 29.0686 62.8387 33.6726V25.3363L62.8408 25.3363Z" fill="#BE2D2D"/>
</svg>
